<?xml version="1.0" encoding="UTF-8"?>
<mxfile host="app.diagrams.net">
  <diagram name="Udagram High Availability Web App">
    <mxGraphModel dx="727" dy="484" grid="1" gridSize="10" guides="1" tooltips="1" connect="1" arrows="1" fold="1" page="1" pageScale="1" pageWidth="827" pageHeight="1169" math="0" shadow="0">
      <root>
        <mxCell id="0" />
        <mxCell id="1" parent="0" />
        <mxCell id="2" value="Udagram VPC" style="rounded=0;whiteSpace=wrap;html=1;aspect=fixed;fillColor=#ffffff;strokeColor=#000000;" vertex="1" parent="1">
          <mxGeometry x="100" y="40" width="640" height="680" as="geometry" />
        </mxCell>
        <mxCell id="3" value="Public Subnet A" style="rounded=0;whiteSpace=wrap;html=1;fillColor=#e1f5fe;strokeColor=#0d47a1;aspect=fixed;" vertex="1" parent="2">
          <mxGeometry x="40" y="40" width="250" height="150" as="geometry" />
        </mxCell>
        <mxCell id="4" value="Public Subnet B" style="rounded=0;whiteSpace=wrap;html=1;fillColor=#e1f5fe;strokeColor=#0d47a1;aspect=fixed;" vertex="1" parent="2">
          <mxGeometry x="350" y="40" width="250" height="150" as="geometry" />
        </mxCell>
        <mxCell id="5" value="Private Subnet A" style="rounded=0;whiteSpace=wrap;html=1;fillColor=#f8cecc;strokeColor=#b85450;aspect=fixed;" vertex="1" parent="2">
          <mxGeometry x="40" y="250" width="250" height="150" as="geometry" />
        </mxCell>
        <mxCell id="6" value="Private Subnet B" style="rounded=0;whiteSpace=wrap;html=1;fillColor=#f8cecc;strokeColor=#b85450;aspect=fixed;" vertex="1" parent="2">
          <mxGeometry x="350" y="250" width="250" height="150" as="geometry" />
        </mxCell>
        <mxCell id="7" value="Internet Gateway" style="shape=mxgraph.aws4.internet_gateway;verticalLabelPosition=bottom;verticalAlign=top;" vertex="1" parent="2">
          <mxGeometry x="550" y="10" width="50" height="50" as="geometry" />
        </mxCell>
        <mxCell id="8" value="Route Table" style="shape=mxgraph.aws4.route_table;verticalLabelPosition=bottom;verticalAlign=top;" vertex="1" parent="2">
          <mxGeometry x="550" y="100" width="50" height="50" as="geometry" />
        </mxCell>
        <mxCell id="9" value="NAT Gateway 1" style="shape=mxgraph.aws4.nat_gateway;verticalLabelPosition=bottom;verticalAlign=top;" vertex="1" parent="3">
          <mxGeometry x="80" y="100" width="50" height="50" as="geometry" />
        </mxCell>
        <mxCell id="10" value="NAT Gateway 2" style="shape=mxgraph.aws4.nat_gateway;verticalLabelPosition=bottom;verticalAlign=top;" vertex="1" parent="4">
          <mxGeometry x="370" y="100" width="50" height="50" as="geometry" />
        </mxCell>
        <mxCell id="11" value="Application Load Balancer" style="shape=mxgraph.aws4.application_load_balancer;verticalLabelPosition=bottom;verticalAlign=top;" vertex="1" parent="3">
          <mxGeometry x="150" y="100" width="50" height="50" as="geometry" />
        </mxCell>
        <mxCell id="12" value="Auto Scaling Group" style="shape=mxgraph.aws4.auto_scaling;verticalLabelPosition=bottom;verticalAlign=top;" vertex="1" parent="5">
          <mxGeometry x="120" y="300" width="50" height="50" as="geometry" />
        </mxCell>
        <mxCell id="13" value="EC2 Instance A1" style="shape=mxgraph.aws4.instance;verticalLabelPosition=bottom;verticalAlign=top;" vertex="1" parent="12">
          <mxGeometry x="40" y="60" width="50" height="50" as="geometry" />
        </mxCell>
        <mxCell id="14" value="EC2 Instance A2" style="shape=mxgraph.aws4.instance;verticalLabelPosition=bottom;verticalAlign=top;" vertex="1" parent="12">
          <mxGeometry x="150" y="60" width="50" height="50" as="geometry" />
        </mxCell>
        <mxCell id="15" value="Auto Scaling Group" style="shape=mxgraph.aws4.auto_scaling;verticalLabelPosition=bottom;verticalAlign=top;" vertex="1" parent="6">
          <mxGeometry x="420" y="300" width="50" height="50" as="geometry" />
        </mxCell>
        <mxCell id="16" value="EC2 Instance B1" style="shape=mxgraph.aws4.instance;verticalLabelPosition=bottom;verticalAlign=top;" vertex="1" parent="15">
          <mxGeometry x="350" y="60" width="50" height="50" as="geometry" />
        </mxCell>
        <mxCell id="17" value="EC2 Instance B2" style="shape=mxgraph.aws4.instance;verticalLabelPosition=bottom;verticalAlign=top;" vertex="1" parent="15">
          <mxGeometry x="450" y="60" width="50" height="50" as="geometry" />
        </mxCell>
        <mxCell id="18" value="S3 Bucket" style="shape=mxgraph.aws4.bucket;verticalLabelPosition=bottom;verticalAlign=top;" vertex="1" parent="2">
          <mxGeometry x="620" y="400" width="50" height="50" as="geometry" />
        </mxCell>
        <mxCell id="19" style="edgeStyle=orthogonalEdgeStyle;rounded=0;orthogonalLoop=1;jettySize=auto;" edge="1" parent="1" source="8" target="9">
          <mxGeometry relative="1" as="geometry" />
        </mxCell>
        <mxCell id="20" style="edgeStyle=orthogonalEdgeStyle;rounded=0;orthogonalLoop=1;jettySize=auto;" edge="1" parent="1" source="8" target="10">
          <mxGeometry relative="1" as="geometry" />
        </mxCell>
        <mxCell id="21" style="edgeStyle=orthogonalEdgeStyle;rounded=0;orthogonalLoop=1;jettySize=auto;" edge="1" parent="1" source="11" target="13">
          <mxGeometry relative="1" as="geometry" />
        </mxCell>
        <mxCell id="22" style="edgeStyle=orthogonalEdgeStyle;rounded=0;orthogonalLoop=1;jettySize=auto;" edge="1" parent="1" source="11" target="14">
          <mxGeometry relative="1" as="geometry" />
        </mxCell>
        <mxCell id="23" style="edgeStyle=orthogonalEdgeStyle;rounded=0;orthogonalLoop=1;jettySize=auto;" edge="1" parent="1" source="11" target="16">
          <mxGeometry relative="1" as="geometry" />
        </mxCell>
        <mxCell id="24" style="edgeStyle=orthogonalEdgeStyle;rounded=0;orthogonalLoop=1;jettySize=auto;" edge="1" parent="1" source="11" target="17">
          <mxGeometry relative="1" as="geometry" />
        </mxCell>
        <mxCell id="25" style="edgeStyle=orthogonalEdgeStyle;rounded=0;orthogonalLoop=1;jettySize=auto;" edge="1" parent="1" source="7" target="8">
          <mxGeometry relative="1" as="geometry" />
        </mxCell>
        <mxCell id="26" style="edgeStyle=orthogonalEdgeStyle;rounded=0;orthogonalLoop=1;jettySize=auto;" edge="1" parent="1" source="18" target="7">
          <mxGeometry relative="1" as="geometry" />
        </mxCell>
      </root>
    </mxGraphModel>
  </diagram>
</mxfile>
